<?xml version="1.0" encoding="UTF-8"?>
<!DOCTYPE svg PUBLIC "-//W3C//DTD SVG 1.1//EN" "http://www.w3.org/Graphics/SVG/1.1/DTD/svg11.dtd">
<!-- Creator: CorelDRAW 2017 -->
<svg xmlns="http://www.w3.org/2000/svg" xml:space="preserve" width="423px" height="79px" version="1.1" style="shape-rendering:geometricPrecision; text-rendering:geometricPrecision; image-rendering:optimizeQuality; fill-rule:evenodd; clip-rule:evenodd"
viewBox="0 0 200.15 37.41"
 xmlns:xlink="http://www.w3.org/1999/xlink">
 <defs>
  <style type="text/css">
   <![CDATA[
    .fil0 {fill:#2B2A29;fill-rule:nonzero}
    .fil1 {fill:#CC0605;fill-rule:nonzero}
   ]]>
  </style>
 </defs>
 <g id="Слой_x0020_1">
  <metadata id="CorelCorpID_0Corel-Layer"/>
  <path class="fil0" d="M10.73 32.48l0 -22.54 -10.73 0 0 -2.93 24.63 0 0 2.93 -10.73 0 0 22.54 -3.17 0zm17.07 -9.83l11.22 0 -5.63 -11.28 -5.59 11.28zm-8.22 9.83l12.49 -25.47 2.63 0 12.63 25.47 -3.44 0 -3.46 -6.85 -14.08 0 -3.37 6.85 -3.4 0zm34.78 -15.41l12.18 0c1.34,0 2.36,-0.3 3.07,-0.91 0.7,-0.61 1.06,-1.48 1.06,-2.62 0,-1.2 -0.34,-2.1 -1.03,-2.71 -0.68,-0.59 -1.71,-0.89 -3.1,-0.89l-12.18 0 0 7.13zm0 12.48l13.33 0c1.45,0 2.59,-0.42 3.43,-1.27 0.83,-0.86 1.25,-2.03 1.25,-3.5 0,-1.46 -0.42,-2.63 -1.25,-3.48 -0.84,-0.86 -1.98,-1.3 -3.43,-1.3l-13.33 0 0 9.55zm-3.16 2.93l0 -25.47 15.07 0c2.5,0 4.4,0.53 5.68,1.6 1.29,1.07 1.93,2.65 1.93,4.74 0,1.02 -0.19,1.93 -0.6,2.73 -0.4,0.8 -0.96,1.45 -1.7,1.94 1.35,0.79 2.37,1.75 3.06,2.88 0.69,1.14 1.04,2.44 1.04,3.92 0,2.36 -0.77,4.22 -2.32,5.6 -1.55,1.38 -3.64,2.06 -6.29,2.06l-15.87 0zm33.36 -25.47l0 16.49c0,2.64 0.49,4.41 1.49,5.32 0.99,0.9 2.93,1.35 5.85,1.35 2.91,0 4.85,-0.45 5.84,-1.35 0.98,-0.91 1.47,-2.68 1.47,-5.32l0 -16.49 3.17 0 0 17.34c0,3.14 -0.82,5.39 -2.45,6.75 -1.63,1.37 -4.31,2.04 -8.05,2.04 -3.73,0 -6.42,-0.67 -8.05,-2.04 -1.63,-1.36 -2.44,-3.61 -2.44,-6.75l0 -17.34 3.17 0zm27.89 11.34l11.25 0c1.6,0 2.81,-0.36 3.63,-1.06 0.83,-0.71 1.24,-1.75 1.24,-3.12 0,-1.33 -0.41,-2.37 -1.24,-3.12 -0.82,-0.74 -1.98,-1.11 -3.47,-1.11l-11.41 0 0 8.41zm-3.17 14.13l0 -25.47 14.62 0c2.49,0 4.44,0.63 5.86,1.88 1.41,1.25 2.12,2.98 2.12,5.2 0,1.84 -0.55,3.42 -1.66,4.73 -1.11,1.32 -2.57,2.14 -4.38,2.46l6.37 11.2 -3.5 0 -6.37 -11.15 -9.89 0 0 11.15 -3.17 0zm77.5 -22.54l-7.76 0 0 19.61 7.76 0c3.14,0 5.61,-0.88 7.41,-2.64 1.8,-1.76 2.7,-4.14 2.7,-7.14 0,-2.96 -0.92,-5.33 -2.75,-7.13 -1.83,-1.8 -4.29,-2.7 -7.36,-2.7zm0 -2.93c4.01,0 7.24,1.18 9.69,3.55 2.45,2.37 3.68,5.45 3.68,9.25 0,3.83 -1.2,6.91 -3.61,9.21 -2.42,2.31 -5.67,3.46 -9.76,3.46l-10.92 0 0 -25.47 10.92 0z"/>
  <path class="fil1" d="M160.2 37.41l-16.33 -6.14 -8.4 -18.66 16.42 6.18 8.31 18.62zm-24.64 -25.73l11.68 -11.68 1.78 0.67 0.81 1.73 -8.75 8.75 11.67 4.38 9.78 -9.78 1.82 0.68 0.78 1.73 -9.88 9.87 6.25 13.94 8.85 -8.86 1.8 0.66 0.79 1.75 -11.77 11.77 -8.6 -19.29 -17.01 -6.32z"/>
 </g>
</svg>
